<svg xmlns="http://www.w3.org/2000/svg" viewBox="0 0 400 400" width="400" height="400"><rect width="400" height="400" rx="56" fill="#0b1510"/><path d="M314.019,173.712L313.348,176.091L310.661,182.31L308.982,189.257L310.325,194.922L316.37,201.679L324.095,206.972L334.17,207.52L343.574,205.33L347.268,206.242L352.306,215.181L356,223.02L350.962,231.035L348.611,238.136L347.604,243.049L347.94,245.231L350.962,249.232L354.657,256.14L354.992,262.317L352.977,266.493L347.94,268.672L342.902,268.127L338.872,268.127L333.498,268.853L325.102,271.213L317.714,274.116L303.272,273.572L297.563,267.401L294.876,267.401L281.778,275.386L267.337,274.116L241.477,276.656L230.73,277.382L219.647,276.475L213.938,274.842L203.526,269.035L193.787,265.041L184.383,268.672L180.689,269.398L172.964,279.196L156.172,282.278L139.716,284.635L134.678,283.366L125.274,282.822L124.939,280.646L125.274,278.289L122.924,276.656L119.229,274.842L112.512,274.116L104.116,271.576L99.414,269.398L82.286,272.665L72.211,267.582L60.792,260.5L55.083,257.593L53.068,246.686L51.053,243.049L46.351,239.409L44,235.041L46.015,230.671L57.434,222.291L58.105,220.286L63.479,204.782L70.868,199.123L77.92,191.268L83.294,178.835L93.705,165.84L105.124,152.646L113.184,142.007L118.558,136.867L129.305,131.541L138.372,128.418L144.418,121.25L152.142,117.204L159.867,115.365L171.285,116.284L182.368,118.859L194.123,122.537L195.466,125.478L194.459,130.439L192.779,135.765L192.779,138.336L194.459,139.804L206.213,140.905L220.319,139.988L228.379,140.722L246.179,145.493L251.552,148.795L256.926,151.546L262.299,150.996L269.016,145.493L276.069,140.722L280.435,139.988L283.457,141.456L289.167,146.043L300.921,150.262L311.333,153.379L314.691,156.496L313.684,169.319Z" fill="#39ff88" fill-opacity="0.18" stroke="#39ff88" stroke-width="3" stroke-linejoin="round"/><circle cx="101.9" cy="223.1" r="9" fill="#ffb648" stroke="#0b1510" stroke-width="3"/><text x="200" y="372" text-anchor="middle" font-family="monospace" font-size="22" fill="#39ff88" letter-spacing="2">THIMPHU</text></svg>