<svg xmlns="http://www.w3.org/2000/svg" viewBox="0 0 400 400" width="400" height="400"><rect width="400" height="400" rx="56" fill="#0b1510"/><path d="M60.865,304.092L61.001,302.648L59.709,301.64L59.709,301.137L59.845,299.759L60.389,296.902L60.321,295.826L60.865,293.673L59.981,292.73L59.845,292.024L58.893,290.879L57.873,289.263L57.601,287.949L57.193,286.938L56.241,285.388L55.493,285.152L53.861,284.916L53.588,285.422L53.044,286.197L52.5,286.433L51.616,285.489L51.276,284.68L51.276,283.939L50.12,282.657L48.284,280.262L48.488,278.304L49.644,277.258L49.984,276.447L50.052,275.569L49.576,274.488L48.964,273.61L49.1,271.717L48.964,269.113L48.012,267.794L47.196,266.846L46.04,265.797L45.02,264.205L45.428,262.004L45.768,260.512L44,257.359L47.332,258.614L47.808,258.173L48.896,257.427L50.46,255.833L51.752,253.728L52.296,251.079L52.568,248.837L53.112,246.899L53.861,245.3L55.425,243.599L56.921,242.408L58.689,241.148L59.641,241.387L61.273,243.123L65.013,246.593L68.073,249.245L69.161,250.672L70.181,250.672L71.677,248.123L73.241,245.879L73.922,245.334L76.03,245.096L77.798,244.994L79.294,245.062L82.15,245.471L83.442,245.879L84.666,246.117L88.202,246.321L91.738,245.777L95.071,245.062L97.519,244.654L97.655,243.599L97.519,242.374L97.927,241.421L98.675,240.535L99.355,240.365L99.627,243.327L100.443,243.769L102.619,243.906L106.223,243.906L110.099,243.906L113.908,243.906L117.784,243.906L121.66,243.906L125.468,243.906L129.344,243.906L133.221,243.906L137.029,243.906L140.905,243.906L144.781,243.906L148.589,243.906L152.466,243.906L156.342,243.906L160.15,243.906L164.026,243.906L167.902,243.906L171.847,243.906L172.935,238.15L173.955,232.865L174.771,228.46L171.915,225.316L169.67,222.819L169.126,218.061L168.582,213.159L168.106,208.25L167.562,203.335L167.018,198.379L166.474,193.45L165.93,188.515L165.386,183.572L164.842,178.622L164.298,173.63L163.754,168.665L163.21,163.693L162.666,158.713L162.19,153.691L161.646,148.695L161.102,143.692L160.558,138.68L160.014,133.625L159.47,128.596L158.926,123.559L158.382,118.514L157.838,113.424L157.294,108.361L156.75,103.289L156.274,98.207L155.73,93.081L155.186,87.981L154.642,82.872L154.098,77.752L153.554,72.623L153.01,67.448L152.466,62.299L151.922,57.14L151.446,52.405L157.226,52.369L163.414,52.369L169.466,52.369L178.307,52.369L184.903,52.369L190.684,56.346L195.92,60.1L202.108,64.569L208.296,68.995L214.485,73.413L220.673,77.86L226.793,82.263L232.982,86.66L239.17,91.085L245.358,95.467L251.547,99.843L257.735,104.247L263.923,108.609L270.112,112.964L276.3,117.348L282.488,121.69L288.677,126.026L294.865,130.391L297.653,132.324L297.857,133.133L298.129,134.749L297.993,136.574L297.993,138.083L298.809,139.101L300.373,140.188L306.425,143.376L306.901,144.007L307.105,145.302L307.854,146.947L309.146,147.891L310.642,148.59L312.41,149.08L317.918,149.569L319.074,150.338L321.454,153.272L322.746,153.83L326.418,154.703L329.003,155.156L330.159,155.436L332.539,156.238L335.123,157.563L336.483,158.783L336.483,159.166L336.483,160.212L336.483,163.38L336.959,165.12L337.503,166.371L337.435,167.136L336.823,167.692L336.279,168.353L336.007,169.221L335.259,170.333L334.647,171.583L334.919,172.52L335.939,173.144L337.503,174.324L338.795,174.809L339.407,174.844L340.223,174.809L340.971,174.671L345.595,173.769L349.88,172.902L355.864,171.722L355.864,175.226L355.864,180.492L355.864,186.338L355.932,191.725L355.932,197.862L355.932,202.785L356,208.628L356,214.393L355.388,215.045L355.184,218.3L354.98,222.58L353.824,226.991L351.852,230.236L351.104,233.308L350.56,235.082L349.812,236.037L349.608,237.196L349.2,238.832L348.588,239.888L348.112,240.433L346.071,241.046L342.467,244.178L342.195,246.661L338.115,245.981L333.831,245.266L333.219,245.3L332.879,245.641L332.675,246.933L326.827,247.171L321.726,247.341L315.47,247.579L311.118,247.715L305.609,248.021L300.577,248.293L297.177,251.147L294.117,253.864L293.913,253.966L289.561,254.509L284.188,254.034L281.4,254L280.312,254.339L280.108,255.357L276.164,253.932L271.54,252.472L268.344,253.389L267.799,253.049L267.391,252.438L265.827,252.098L263.379,252.268L261.611,252.676L258.823,254.848L256.715,256.715L256.171,257.156L253.247,258.275L247.806,260.919L244.678,262.851L243.998,263.223L242.57,263.663L240.462,263.765L238.694,264.239L237.13,269.35L236.042,269.857L229.582,267.794L228.289,268.098L227.133,268.707L223.529,271.683L221.693,274.083L220.741,277.292L220.877,278.271L220.877,279.351L220.265,279.958L219.381,280.195L218.565,280.161L215.573,279.486L214.621,279.79L214.213,281.342L214.281,284.781L213.601,287.107L211.833,287.848L210.473,288.758L209.384,289.027L208.432,288.791L203.196,285.321L201.428,284.748L199.456,285.152L197.552,286.635L196.736,287.579L195.58,288.724L194.22,290.239L194.56,291.552L195.512,293.033L196.192,294.884L196.124,296.565L191.364,298.919L191.772,299.725L192.452,300.666L192.452,302.379L192.316,305.368L191.364,306.476L190.139,307.516L189.323,308.925L188.575,309.596L187.215,310.434L185.379,311.272L182.115,312.044L179.531,312.546L178.579,313.016L177.219,314.021L176.131,315.227L175.859,316.534L176.063,318.007L176.471,319.246L176.947,320.083L177.219,321.121L176.811,323.965L175.859,327.208L174.975,328.679L173.547,329.481L172.255,330.383L172.663,332.521L172.935,335.593L172.527,338.029L172.527,339.531L171.983,341.132L171.643,342.232L171.031,341.965L168.446,342.065L165.59,342.932L164.638,343.599L164.434,344.499L163.754,345.132L162.87,345.799L161.986,346.665L160.422,346.532L158.926,345.932L158.178,345.365L158.11,345.032L158.586,344.199L158.994,343.299L159.062,342.699L158.518,341.265L158.11,339.697L158.314,338.93L157.906,336.594L157.702,336.494L155.73,337.095L155.05,337.229L154.642,337.495L154.506,337.929L154.982,339.397L154.642,339.664L153.554,339.631L151.99,339.13L150.289,337.796L149.881,338.23L149.677,339.297L149.609,340.565L150.017,342.866L149.541,343.699L148.453,343.532L146.889,343.532L145.597,343.766L144.713,343.832L144.169,344.632L143.897,345.565L144.441,346.598L144.373,346.998L143.965,347.398L143.421,347.631L143.013,347.631L141.789,346.498L140.293,346.065L136.893,345.432L136.485,343.866L135.941,343.832L135.125,343.032L134.377,341.965L133.697,341.999L133.153,342.299L131.248,342.199L129.616,343.832L128.392,345.865L127.032,346.832L125.604,347.265L125.06,347.265L125.332,345.999L125.128,345.066L124.72,344.232L120.504,341.999L119.824,341.065L119.212,338.53L118.736,335.994L118.804,334.525L119.076,333.189L118.94,332.154L118.532,331.352L117.24,330.617L115.88,330.25L114.248,331.252L113.432,331.419L112.684,331.352L112.276,331.018L112.344,330.484L114.18,327.777L115.064,326.64L116.152,325.771L116.832,325.303L117.308,324.634L117.376,324.132L117.172,323.731L116.016,323.262L114.112,321.991L113.16,321.857L112.344,321.255L111.459,319.28L111.051,318.912L110.167,318.711L109.351,318.208L109.419,315.629L109.419,313.418L107.583,309.797L106.903,307.549L106.019,305.234L105.203,304.126L103.707,303.219L101.939,302.581L100.307,302.447L99.083,302.648L98.539,302.917L98.539,303.353L99.559,304.831L99.695,305.636L99.559,306.442L99.219,306.979L98.335,307.046L96.771,307.482L94.867,308.388L93.575,309.126L92.486,311.071L91.738,311.339L90.514,311.071L86.91,309.663L83.918,308.489L81.878,307.784L80.654,308.22L80.042,308.455L78.274,309.227L75.962,312.111L75.418,313.049L74.942,313.351L74.33,313.854L73.718,313.854L73.241,313.518L73.037,313.317L71.881,311.239L70.521,308.958L69.501,307.952L68.141,307.885L66.985,308.623L65.761,310.065L64.265,311.44L63.313,311.842L62.429,311.608L60.389,309.898L58.893,308.69L58.689,308.086L59.233,307.147L59.777,305.737L60.321,304.596Z" fill="#39ff88" fill-opacity="0.18" stroke="#39ff88" stroke-width="3" stroke-linejoin="round"/><circle cx="124.9" cy="304.4" r="9" fill="#ffb648" stroke="#0b1510" stroke-width="3"/><text x="200" y="372" text-anchor="middle" font-family="monospace" font-size="22" fill="#39ff88" letter-spacing="2">BAMAKO</text></svg>