<svg xmlns="http://www.w3.org/2000/svg" viewBox="0 0 400 400" width="400" height="400"><rect width="400" height="400" rx="56" fill="#0b1510"/><path d="M247.764,356L241.061,355.818L234.836,355.635L231.484,355.088L227.893,353.445L226.217,350.157L224.301,346.319L224.78,343.759L230.766,336.985L231.723,334.97L231.005,334.054L231.723,330.937L236.272,320.655L236.751,316.426L234.836,313.481L231.723,311.824L222.146,308.693L217.597,304.454L215.682,300.58L213.527,299.472L210.415,300.764L202.514,302.24L196.05,300.211L188.388,293.007L186.712,286.533L185.754,281.719L183.839,279.866L181.205,282.46L178.093,286.533L171.629,286.904L169.953,285.978L169.474,283.756L169.234,281.719L167.319,279.124L165.643,277.641L157.503,285.052L154.39,284.867L150.56,282.089L148.644,279.31L144.574,280.978L140.743,284.312L142.18,290.788L140.025,291.898L135.476,291.343L130.209,288.754L124.463,287.089L115.604,282.645L103.394,286.348L94.775,281.904L87.831,281.533L83.282,278.012L78.733,272.261L82.085,268.361L85.198,267.06L98.126,266.317L107.703,268.733L124.702,281.348L129.012,281.163L133.561,279.68L131.167,276.158L126.857,274.488L120.632,271.147L115.604,266.317L127.336,264.83L125.66,262.413L124.223,258.133L111.773,243.403L113.928,239.293L117.041,230.688L120.871,223.568L123.984,221.693L129.251,216.626L140.265,201.581L147.447,189.322L152.714,174.949L160.376,134.627L162.77,127.746L166.361,120.089L171.15,121.621L174.262,123.727L185.754,117.981L205.626,103.007L211.372,89.915L217.119,83.934L239.864,71.951L252.313,68.466L271.707,67.497L285.832,65.366L302.592,64.591L309.056,71.951L312.647,77.366L318.633,80.265L327.97,82.39L327.252,92.999L327.492,113.762L326.773,117.406L322.464,126.215L318.154,141.689L316.957,151.976L315.76,154.069L298.043,153.879L295.649,155.781L295.17,157.872L296.127,160.533L295.649,163.192L294.212,165.28L294.93,168.695L298.043,172.486L303.549,174.949L309.535,175.138L312.647,174.76L314.802,177.411L317.196,181.573L316.957,187.055L315.999,194.041L313.366,200.639L305.225,208.169L301.395,210.801L298.043,212.305L296.367,214.184L295.649,216.814L295.888,219.066L301.634,225.068L301.395,226.38L299.719,229.565L297.564,232.56L282.72,238.732L276.495,238.172L273.143,241.162L271.946,241.909L268.115,238.919L259.257,235.741L256.144,236.863L254.229,238.732L248.722,240.788L244.891,244.15L244.891,248.442L251.835,259.622L254.229,261.855L254.229,266.131L257.581,271.333L261.172,277.827L261.411,281.904L261.172,286.163L259.257,292.083L253.271,305.929L253.271,308.693L253.75,310.72L255.905,311.272L257.341,312.377L256.862,314.218L245.61,323.778L244.173,325.431L239.624,324.88L238.906,326.533L239.385,329.102L241.3,331.487L245.37,332.587L248.722,334.97L251.595,339.732ZM130.209,288.754L129.251,292.822L126.857,297.257L117.998,303.532L108.661,307.772L104.112,307.219L100.76,305.007L99.084,302.794L94.056,300.58L87.353,299.472L83.043,301.871L80.17,304.085L77.536,303.716L75.621,301.871L73.945,298.918L72.03,289.679L77.057,288.014L88.071,287.274L96.451,290.604L107.464,292.083L116.083,287.644L122.787,291.528ZM270.509,56.831L261.172,60.712L258.778,59.936L259.496,58.772L267.636,56.443ZM243.694,62.652L230.526,64.397L225.977,63.04L225.259,61.876L228.85,61.1L240.103,60.906L243.455,62.07ZM189.106,79.492L176.656,87.601L175.699,86.443L183.6,79.299ZM203.472,70.789L197.247,71.757L194.374,70.208L209.457,65.754L218.795,64.397L220.47,64.978ZM174.262,105.89L167.558,113.762L163.488,111.46L162.531,109.732L164.446,103.584L174.262,93.384ZM111.773,251.053L118.477,256.829L119.674,258.691L120.153,260.738L112.013,262.971L103.154,255.898L97.408,257.574L95.253,254.221L95.253,251.985L101.239,250.307ZM297.085,48.864L291.1,49.253L292.776,46.336L298.522,44L301.634,44ZM-4686.698,3471.73L-4690.05,3479.286L-4691.965,3475.981L-4692.205,3469.84L-4693.641,3467.478L-4696.275,3466.06L-4697.711,3464.052L-4697.711,3460.98L-4687.656,3465.824ZM-4336.425,3103.387L-4338.101,3104.839L-4339.538,3104.718L-4340.495,3103.387L-4340.495,3100.966L-4339.298,3101.692L-4338.58,3101.934L-4338.341,3102.418ZM-4356.058,3094.547L-4356.537,3094.789L-4357.494,3094.183L-4357.255,3092.972L-4356.537,3092.487L-4356.058,3092.851L-4355.579,3093.699Z" fill="#39ff88" fill-opacity="0.18" stroke="#39ff88" stroke-width="3" stroke-linejoin="round"/><circle cx="151.2" cy="198.0" r="9" fill="#ffb648" stroke="#0b1510" stroke-width="3"/><text x="200" y="372" text-anchor="middle" font-family="monospace" font-size="22" fill="#39ff88" letter-spacing="2">AMSTERDAM</text></svg>