<svg xmlns="http://www.w3.org/2000/svg" viewBox="0 0 400 400" width="400" height="400"><rect width="400" height="400" rx="56" fill="#0b1510"/><path d="M178.232,151.096L179.652,151.181L180.939,149.957L182.314,148.99L183.735,148.195L185.909,146.322L186.442,146.067L187.862,145.698L188.483,145.273L189.149,145.16L188.528,146.265L187.773,146.634L187.64,147.031L188.084,147.655L187.418,148.536L187.418,149.644L186.619,150.953L187.862,150.441L188.306,149.587L188.084,149.104L188.616,148.138L189.415,147.684L189.105,146.974L189.105,146.407L190.125,146.605L190.614,146.605L191.013,146.379L191.723,146.265L191.901,146.917L192.833,146.832L192.478,147.627L191.767,148.564L191.59,149.132L190.392,150.071L189.593,150.469L190.835,150.583L192.611,149.331L193.676,148.223L193.631,149.587L192.788,150.839L192.034,151.637L191.191,151.865L190.392,152.52L189.992,153.547L190.037,154.261L190.259,154.804L191.102,155.719L190.17,157.522L191.235,157.293L191.812,157.637L192.611,158.669L192.123,159.874L191.767,160.506L189.682,163.037L188.794,164.305L187.729,165.142L187.773,166.499L187.152,167.482L184.045,170.871L183.513,171.597L181.072,177.011L179.519,179.29L178.631,180.081L177.699,180.725L175.436,181.78L174.415,183.041L173.305,184.069L172.151,184.304L172.196,184.745L172.95,185.01L173.527,185.687L173.083,186.452L172.24,186.924L171.397,187.071L170.953,187.572L172.995,187.218L173.572,187.602L173.705,188.457L173.927,189.225L174.415,190.229L176.146,190.85L177.699,191.146L178.01,191.62L178.232,193.22L177.965,194.021L177.61,194.555L177.078,194.733L175.835,194.822L174.548,194.466L173.705,193.487L171.308,193.813L170.643,194.021L170.332,193.842L171.663,192.805L170.953,192.242L170.376,192.005L169.755,192.36L169.355,192.894L169.222,193.783L168.779,194.288L168.113,194.436L167.181,193.694L166.249,192.656L164.917,191.59L165.095,192.242L166.16,193.842L166.693,194.911L165.45,195.773L164.207,196.427L163.098,196.814L162.122,197.409L160.923,198.362L160.258,198.69L158.527,198.72L157.595,199.018L157.284,200.271L156.618,201.077L155.109,201.227L155.642,201.466L155.997,201.884L154.976,205.659L154.754,207.251L154.577,209.931L153.956,212.436L152.136,212.436L152.402,212.889L153.778,213.585L153.512,214.674L152.003,216.615L151.382,217.768L150.76,220.506L149.873,223.069L148.452,225.975L148.452,226.496L148.941,227.231L149.518,227.876L149.562,228.797L149.384,229.289L148.719,229.412L148.142,229.719L144.991,230.519L143.926,231.412L143.082,233.046L142.106,234.435L138.822,237.53L136.869,240.106L136.47,240.852L135.937,241.412L131.721,242.626L128.703,242.813L127.061,242.502L125.463,241.879L124.62,241.661L122.934,242.035L122.224,242.471L120.892,242.066L119.872,242.377L119.561,242.066L119.162,241.288L119.383,240.292L119.117,239.547L118.451,239.019L118.008,238.429L117.475,238.026L116.099,237.84L113.925,238.119L113.215,238.088L111.706,235.61L111.217,234.991L109.487,234.219L108.865,234.311L107.933,235.641L107.356,235.857L104.072,236.012L100.744,235.579L99.501,235.084L99.279,233.941L101.809,230.796L101.054,231.227L99.501,232.49L98.525,232.305L99.457,230.919L99.545,230.303L99.368,229.596L98.037,230.765L96.572,230.919L96.394,229.842L96.528,228.582L96.838,228.244L100.788,227.569L102.253,227.139L102.874,226.465L100.477,226.25L100.344,225.301L100.655,224.536L102.696,223.283L101.232,223.619L99.545,223.496L99.679,222.183L100.078,221.146L101.853,221.116L101.276,220.415L101.232,219.41L101.72,219.349L103.451,220.689L104.738,221.177L104.205,220.171L104.294,219.532L104.605,219.258L105.67,219.045L105.359,218.863L104.383,218.619L103.229,217.86L103.096,217.07L103.14,216.129L104.383,214.856L105.137,215.614L106.025,215.401L105.359,214.826L104.96,213.917L105.226,213.343L107.889,210.986L108.555,213.252L108.732,212.496L108.777,211.771L108.466,211.167L108.51,210.534L108.821,209.991L109.93,209.479L111.439,207.733L112.549,206.951L113.436,207.462L114.013,208.154L113.925,207.462L113.525,206.891L113.392,205.299L115.389,202.872L117.564,200.54L119.694,198.094L120.804,197.23L123.2,196.219L124.709,196.635L125.108,196.546L127.372,194.822L128.304,194.347L129.147,194.97L129.68,195.208L129.147,193.605L129.591,192.894L131.455,191.59L133.851,190.259L135.627,189.697L136.958,188.811L137.757,188.782L137.624,188.103L137.757,187.454L138.467,187.513L138.689,187.248L138.067,186.894L140.02,185.599L141.085,184.187L141.662,183.864L142.15,183.452L142.772,182.454L143.526,182.132L144.192,182.278L144.68,182.777L144.414,181.956L143.526,181.516L144.503,180.813L145.479,180.344L146.411,180.695L147.343,181.252L146.411,180.373L146.278,179.846L147.387,179.232L148.009,179.056L148.852,180.198L148.763,179.29L148.941,178.472L150.183,177.157L151.781,174.97L152.269,175.728L152.358,176.632L152.269,177.771L152.624,177.362L152.713,176.369L152.491,174.592L154.488,171.307L154.843,170.958L155.287,170.726L155.997,170.639L155.775,170.146L155.243,169.653L155.775,168.003L156.13,166.124L156.574,164.305L157.328,162.519L158.127,159.587L158.749,158.956L160.435,158.755L161.145,158.325L162.388,157.265L163.808,155.347L164.607,153.804L165.628,149.815L166.204,145.642L167.847,142.586L170.243,140.356L172.373,138.666L173.217,138.328L174.681,138.216L176.101,138.694L173.483,139.088L173.217,140.103L173.128,141.09L173.438,142.021L173.927,142.812L175.169,143.575L176.634,144.028L177.3,145.755L177.433,147.797L177.655,149.559ZM188.084,144.283L186.397,145.245L186.486,144.594L186.797,143.151L187.551,142.417L187.906,142.388L188.661,141.823L188.616,143.038ZM99.679,225.485L99.634,226.342L99.501,226.771L99.057,226.771L98.436,226.679L97.815,226.281L97.371,226.404L97.06,226.25L97.504,225.27L98.969,224.75L99.501,225.179ZM102.563,217.1L103.096,219.228L101.986,218.802L101.498,218.194L102.386,217.131ZM116.942,246.998L116.942,247.719L115.655,247.437L115.7,248.251L116.721,248.69L117.076,249.255L118.141,249.098L118.363,249.977L118.141,250.73L117.431,251.327L115.345,251.61L113.969,252.743L112.815,252.554L112.504,252.649L111.173,253.878L109.664,254.256L109.265,254.161L109.487,253.09L110.596,252.051L110.596,251.076L110.907,250.291L111.972,249.725L111.972,248.69L112.682,247.781L112.238,245.81L112.504,244.061L114.59,243.967ZM208.144,71.974L208.233,72.798L207.301,72.505L206.945,71.868L205.88,71.231L205.703,71.019L205.614,69.746L206.147,69.137L206.235,68.872L206.502,68.766L206.945,69.455L207.789,70.409ZM180.095,51.573L180.317,52.252L180.983,51.782L181.471,50.999L182.314,50.217L182.181,51.469L182.625,51.756L185.332,52.644L185.909,53.376L186.486,53.585L186.797,53.167L187.196,52.958L188.173,53.428L190.392,54.71L190.569,55.155L190.48,55.81L190.569,56.517L190.88,57.068L191.634,57.199L192.611,56.386L193.055,56.281L193.72,57.461L193.986,58.117L193.853,58.091L194.297,58.747L194.83,59.404L195.806,61.349L195.673,62.034L195.407,62.639L196.294,64.432L195.717,64.564L193.942,64.247L193.986,64.617L195.007,65.937L195.895,67.787L196.561,68.925L199.001,72.426L198.646,73.675L198.691,74.499L198.38,75.191L199.223,77.056L198.691,77.642L198.336,79.565L197.981,79.885L198.025,80.58L199.001,80.767L199.578,81.062L200.111,81.624L200.422,80.955L200.865,80.767L202.019,81.677L204.46,82.588L205.126,82.936L205.481,83.659L205.703,85.457L206.191,86.236L207.123,86.397L208.144,86.156L208.454,85.484L208.233,83.74L207.522,80.955L207.522,80.046L207.611,79.164L207.478,78.256L207.079,77.402L206.724,76.762L206.191,76.203L206.369,75.351L207.123,74.978L207.567,75.697L207.966,76.549L209.83,79.137L210.984,78.95L211.073,80.019L211.827,81.115L212.271,82.373L212.804,86.209L213.647,89.788L215.2,91.38L215.378,92.136L214.446,91.731L214.135,91.974L214.224,92.352L215.111,93.027L216.132,93.379L216.754,93.325L217.375,93.568L221.369,95.923L223.277,96.844L228.115,98.364L229.491,98.473L230.245,98.418L231.71,97.903L232.997,96.98L234.106,95.571L235.083,93.974L236.103,93.216L237.302,92.595L237.923,92.028L238.544,91.623L241.784,91.812L242.893,92.622L244.314,93.271L245.024,93.757L244.802,94.785L243.959,96.302L243.293,97.957L242.716,101.709L242.316,105.555L241.74,107.223L240.674,108.537L239.476,109.469L238.145,109.935L237.612,112.105L237.346,114.663L237.39,115.325L237.834,115.821L238.012,116.593L237.302,118.14L236.902,117.919L236.325,116.621L235.793,116.097L234.195,115.683L232.553,115.49L231.133,115.628L229.757,116.152L227.671,117.283L227.05,117.863L226.473,118.554L225.541,120.159L225.319,122.126L225.363,123.18L225.674,123.958L227.449,125.069L225.718,128.857L224.165,132.854L223.277,133.975L222.257,135.04L221.325,137.428L219.638,139.511L218.529,141.09L217.641,142.756L216.887,144.509L215.245,147.003L214.535,148.649L213.558,150.014L211.783,151.751L209.919,153.262L206.945,155.347L206.147,156.034L205.259,156.549L204.194,155.948L203.972,155.29L203.706,153.861L203.484,153.348L202.108,152.92L200.288,153.605L199.978,153.462L199.889,153.148L199.889,151.067L200.2,150.498L199.8,150.156L199.356,150.298L199.223,150.811L199.49,151.266L198.469,151.836L197.359,151.865L197.049,151.637L196.96,151.266L197.226,150.64L197.581,150.071L199.578,147.485L201.664,144.028L203.439,140.356L203.928,138.469L204.593,134.956L204.061,133.526L203.351,132.154L201.575,129.527L199.135,128.048L197.581,127.853L196.117,127.296L194.741,126.043L193.454,124.569L190.969,123.374L188.306,122.431L186.797,121.1L186.442,120.297L186.22,119.384L186.22,118.554L186.442,117.67L186.708,117.007L187.196,116.538L189.992,114.829L192.966,113.865L193.498,113.892L194.031,113.727L194.785,113.149L196.117,111.83L196.472,110.923L196.738,108.072L197.182,105.282L197.936,102.117L199.09,100.13L199.49,98.934L199.001,96.953L199.445,96.221L199.978,95.76L200.555,95.517L199.534,93.649L198.38,90.84L198.114,89.977L198.291,89.115L198.602,88.28L197.848,88.065L197.404,87.258L196.339,84.545L196.649,84.115L197.271,84.41L198.158,86.371L198.336,85.35L199.046,84.732L199.756,84.41L200.555,84.357L198.78,82.159L198.158,82.266L197.359,82.588L196.516,82.802L195.717,82.614L194.963,82.132L194.608,81.222L194.12,79.458L193.809,78.817L191.457,75.218L192.167,75.111L194.075,76.896L194.43,76.336L194.741,75.51L194.608,74.579L194.164,73.887L193.498,73.435L193.454,72.638L193.986,71.895L193.942,71.364L192.877,70.303L192.433,70.197L192.211,70.674L192.522,71.417L192.256,71.497L189.548,69.561L188.75,68.025L188.084,66.307L187.995,66.994L188.084,67.972L189.149,69.932L190.88,72.107L191.191,72.691L190.924,73.462L190.303,73.675L189.815,73.196L189.016,71.311L188.439,70.382L181.871,60.744L182.714,59.482L184.001,58.406L184.312,57.933L184.534,57.356L183.957,57.277L183.468,57.54L182.891,58.012L182.403,58.589L181.738,59.824L181.427,60.113L180.672,59.246L180.362,58.721L180.362,58.091L180.184,57.671L179.607,57.54L178.764,56.281L178.232,55.652L179.119,54.422L179.164,52.801L178.232,51.104L177.166,49.539L175.081,47.039L173.172,44.389L175.258,44.052L177.344,44L176.368,45.584L176.811,46.493L177.477,47.274L178.897,49.643L179.03,50.347L179.74,51.025ZM129.68,354.522L130.345,355.542L129.058,356L128.437,355.613L127.993,355.155L127.771,354.487L128.437,354.557L129.058,354.276ZM93.243,320.04L93.51,321.666L92.8,321.7L91.38,321.225L90.98,320.514L90.669,320.345L90.137,321.157L89.338,321.191L89.116,320.92L89.471,320.074L91.424,318.418L91.779,316.36L91.735,315.72L93.288,315.552L93.643,315.787L93.776,316.09L93.687,316.461L93.066,317.135L93.066,317.911L93.199,318.722L92.711,319.127L92.977,319.837ZM310.218,192.242L309.774,192.686L309.02,192.656L307.688,194.406L307.777,193.101L307.378,192.597L306.224,192.716L306.046,193.012L306.801,193.368L306.978,193.546L306.224,194.288L306.978,195.921L307.644,195.862L308.265,197.141L308.265,197.528L306.801,198.004L306.046,198.69L305.336,198.66L305.026,198.541L304.626,197.32L304.626,196.814L305.469,195.892L305.958,195L305.558,194.169L304.582,193.605L302.452,193.872L301.963,193.694L303.029,192.538L304.182,192.686L305.425,191.857ZM310.218,202.213L309.686,202.363L309.73,201.376L309.552,200.749L310.484,200.54L310.884,201.316ZM355.797,-302.385L355.752,-302.363L355.708,-302.493L355.619,-302.644L355.575,-302.796L355.575,-302.818L355.708,-302.688L355.797,-302.536ZM371.729,-292.722L371.729,-292.678L371.64,-292.743L371.552,-292.852L371.507,-292.982L371.552,-293.004L371.64,-292.917L371.685,-292.83Z" fill="#39ff88" fill-opacity="0.18" stroke="#39ff88" stroke-width="3" stroke-linejoin="round"/><circle cx="195.4" cy="151.1" r="9" fill="#ffb648" stroke="#0b1510" stroke-width="3"/><text x="200" y="372" text-anchor="middle" font-family="monospace" font-size="22" fill="#39ff88" letter-spacing="2">WELLINGTON</text></svg>